<?xml version="1.0" encoding="UTF-8"?>
<svg width="36px" height="36px" viewBox="0 0 36 36" version="1.1" xmlns="http://www.w3.org/2000/svg" xmlns:xlink="http://www.w3.org/1999/xlink">
    <title>589E5694-6936-46BD-A6C9-D40488BD2ACE</title>
    <g id="Web" stroke="none" stroke-width="1" fill="none" fill-rule="evenodd">
        <g id="Tringhub_Home_Final" transform="translate(-779.000000, -1566.000000)">
            <g id="project_card_3" transform="translate(285.000000, 1176.000000)">
                <g id="message_master" transform="translate(342.000000, 386.000000)">
                    <g id="btn_send_message" transform="translate(152.000000, 4.000000)">
                        <rect id="path" x="0" y="0" width="36" height="36"></rect>
                        <path d="M26.4,13.6 L25.2,13.6 L25.2,10.3 C25.2,8.47746033 23.5882251,7 21.6,7 L9.6,7 C7.6117749,7 6,8.47746033 6,10.3 L6,23.5 C6.00241817,23.9440721 6.29588939,24.343256 6.744,24.512 C6.88641526,24.5735795 7.04258816,24.6037181 7.2,24.6 C7.51896358,24.6016904 7.8255374,24.4869052 8.052,24.281 L11.424,21.179 L13.2,21.179 L13.2,22.763 C13.2,24.5855397 14.8117749,26.063 16.8,26.063 L25.104,26.063 L27.948,28.681 C28.1744626,28.8869052 28.4810364,29.0016904 28.8,29 C28.9574118,29.0037181 29.1135847,28.9735795 29.256,28.912 C29.7041106,28.743256 29.9975818,28.3440721 30,27.9 L30,16.9 C30,15.0774603 28.3882251,13.6 26.4,13.6 Z M13.2,16.9 L13.2,18.979 L10.932,18.979 C10.6130364,18.9773096 10.3064626,19.0920948 10.08,19.298 L8.4,20.849 L8.4,10.3 C8.4,9.69248678 8.9372583,9.2 9.6,9.2 L21.6,9.2 C22.2627417,9.2 22.8,9.69248678 22.8,10.3 L22.8,13.6 L16.8,13.6 C14.8117749,13.6 13.2,15.0774603 13.2,16.9 Z M27.6,25.249 L26.4,24.149 C26.1755143,23.9390588 25.8686951,23.8202204 25.548,23.819 L16.8,23.819 C16.1372583,23.819 15.6,23.3265132 15.6,22.719 L15.6,16.9 C15.6,16.2924868 16.1372583,15.8 16.8,15.8 L26.4,15.8 C27.0627417,15.8 27.6,16.2924868 27.6,16.9 L27.6,25.249 Z" id="Shape" fill="#232323" fill-rule="nonzero"></path>
                    </g>
                </g>
            </g>
        </g>
    </g>
</svg>