<?xml version="1.0" encoding="UTF-8"?>
<svg width="24px" height="24px" viewBox="0 0 24 24" version="1.1" xmlns="http://www.w3.org/2000/svg" xmlns:xlink="http://www.w3.org/1999/xlink">
    <title>7CCFC81B-519C-4075-95C2-D90E8F6B9D96</title>
    <g id="Web" stroke="none" stroke-width="1" fill="none" fill-rule="evenodd">
        <g id="Tringhub_Home_Final" transform="translate(-1340.000000, -641.000000)">
            <g id="filter" transform="translate(1330.000000, 633.000000)">
                <g id="ic_filter" transform="translate(10.000000, 8.000000)">
                    <polygon id="path" points="0 0 24 0 24 24 0 24 0 20.7635593"></polygon>
                    <path d="M17.2666668,3.66666667 L6.06666681,3.66666667 C4.74118341,3.66666667 3.66666667,4.74118299 3.66666667,6.06666605 L3.66666667,7.00266581 C3.66666667,7.33302005 3.73463978,7.65984084 3.86666681,7.96266556 L3.86666681,8.01066555 C3.97969048,8.26744247 4.13978061,8.50079412 4.33866681,8.69866537 L9.26666681,13.5946641 L9.26666681,18.8666628 C9.2661137,19.1430639 9.40827845,19.4001703 9.64266681,19.5466626 C9.76997981,19.6255658 9.91688667,19.6671432 10.0666668,19.6666667 C10.1919006,19.6659117 10.315209,19.6357696 10.4266668,19.5786626 L13.6266668,17.978663 C13.8956905,17.8431028 14.0657538,17.5679097 14.0666668,17.2666632 L14.0666668,13.5946641 L18.9626668,8.69866537 C19.161553,8.50079412 19.3216431,8.26744247 19.4346668,8.01066555 L19.4346668,7.96266556 C19.5777183,7.66221016 19.6567242,7.33528916 19.6666667,7.00266581 L19.6666667,6.06666605 C19.6666667,4.74118299 18.5921502,3.66666667 17.2666668,3.66666667 Z M12.6986668,12.6986643 C12.5489176,12.8496394 12.4654374,13.0540219 12.4666668,13.2666642 L12.4666668,16.7706633 L10.8666668,17.5706631 L10.8666668,13.2666642 C10.8678962,13.0540219 10.784416,12.8496394 10.6346668,12.6986643 L6.39466681,8.46666543 L16.9386668,8.46666543 L12.6986668,12.6986643 Z M18.0666668,6.86666584 L5.26666681,6.86666584 L5.26666681,6.06666605 C5.26666681,5.62483836 5.62483901,5.26666625 6.06666681,5.26666625 L17.2666668,5.26666625 C17.7084946,5.26666625 18.0666668,5.62483836 18.0666668,6.06666605 L18.0666668,6.86666584 Z" id="Shape" fill="#232323" fill-rule="nonzero"></path>
                </g>
            </g>
        </g>
    </g>
</svg>