<?xml version="1.0" encoding="UTF-8"?>
<svg width="24px" height="24px" viewBox="0 0 24 24" version="1.1" xmlns="http://www.w3.org/2000/svg" xmlns:xlink="http://www.w3.org/1999/xlink">
    <title>94F7B596-1CE4-456B-B94C-C58E632A0456</title>
    <g id="Web" stroke="none" stroke-width="1" fill="none" fill-rule="evenodd">
        <g id="Tringhub_Home_Final" transform="translate(-791.000000, -1215.000000)">
            <g id="project_card_3" transform="translate(285.000000, 1176.000000)">
                <g id="icon_menu" transform="translate(506.000000, 39.000000)">
                    <rect id="path" x="0" y="0" width="24" height="24"></rect>
                    <path d="M12,7 C13.1045695,7 14,6.1045695 14,5 C14,3.8954305 13.1045695,3 12,3 C10.8954305,3 10,3.8954305 10,5 C10,6.1045695 10.8954305,7 12,7 Z M12,17 C10.8954305,17 10,17.8954305 10,19 C10,20.1045695 10.8954305,21 12,21 C13.1045695,21 14,20.1045695 14,19 C14,17.8954305 13.1045695,17 12,17 Z M12,10 C10.8954305,10 10,10.8954305 10,12 C10,13.1045695 10.8954305,14 12,14 C13.1045695,14 14,13.1045695 14,12 C14,10.8954305 13.1045695,10 12,10 Z" id="Shape" fill="#000000" fill-rule="nonzero"></path>
                </g>
            </g>
        </g>
    </g>
</svg>