<?xml version="1.0" encoding="UTF-8"?>
<svg width="18px" height="18px" viewBox="0 0 18 18" version="1.1" xmlns="http://www.w3.org/2000/svg" xmlns:xlink="http://www.w3.org/1999/xlink">
    <title>7046651F-E7F9-4E0C-ACF0-175E52225E42</title>
    <g id="Web" stroke="none" stroke-width="1" fill="none" fill-rule="evenodd">
        <g id="Tringhub_Home_Final" transform="translate(-1282.000000, -550.000000)">
            <g id="project_gallery" transform="translate(996.000000, 188.000000)">
                <g id="icon_add-new" transform="translate(286.000000, 362.000000)">
                    <rect id="path" x="0" y="0" width="18" height="18"></rect>
                    <path d="M9,1.5 C4.85786438,1.5 1.5,4.85786438 1.5,9 C1.5,13.1421356 4.85786438,16.5 9,16.5 C13.1421356,16.5 16.5,13.1421356 16.5,9 C16.5,7.01087633 15.7098237,5.10322198 14.3033009,3.69669914 C12.896778,2.2901763 10.9891237,1.5 9,1.5 Z M9,15 C5.6862915,15 3,12.3137085 3,9 C3,5.6862915 5.6862915,3 9,3 C12.3137085,3 15,5.6862915 15,9 C15,10.5912989 14.367859,12.1174224 13.2426407,13.2426407 C12.1174224,14.367859 10.5912989,15 9,15 Z M12,8.25 L9.75,8.25 L9.75,6 C9.75,5.58578644 9.41421356,5.25 9,5.25 C8.58578644,5.25 8.25,5.58578644 8.25,6 L8.25,8.25 L6,8.25 C5.58578644,8.25 5.25,8.58578644 5.25,9 C5.25,9.41421356 5.58578644,9.75 6,9.75 L8.25,9.75 L8.25,12 C8.25,12.4142136 8.58578644,12.75 9,12.75 C9.41421356,12.75 9.75,12.4142136 9.75,12 L9.75,9.75 L12,9.75 C12.4142136,9.75 12.75,9.41421356 12.75,9 C12.75,8.58578644 12.4142136,8.25 12,8.25 Z" id="Shape" fill="#232323" fill-rule="nonzero"></path>
                </g>
            </g>
        </g>
    </g>
</svg>