<?xml version="1.0" encoding="UTF-8"?>
<svg width="18px" height="18px" viewBox="0 0 18 18" version="1.1" xmlns="http://www.w3.org/2000/svg" xmlns:xlink="http://www.w3.org/1999/xlink">
    <title>D9EBCD13-1A36-4538-B442-BD1B9D2D6EF7</title>
    <g id="Web" stroke="none" stroke-width="1" fill="none" fill-rule="evenodd">
        <g id="Tringhub_Home_Final" transform="translate(-1024.000000, -550.000000)">
            <g id="project_gallery" transform="translate(996.000000, 188.000000)">
                <g id="icon_left_arrow" transform="translate(28.000000, 362.000000)">
                    <rect id="path" x="0" y="0" width="18" height="18"></rect>
                    <path d="M8.32043204,8.97901519 L11.7206867,5.61904733 C12.0931044,5.24884583 12.0931044,4.65095655 11.7206867,4.28075505 C11.5403324,4.10107018 11.2948264,4 11.0387147,4 C10.782603,4 10.537097,4.10107018 10.3567427,4.28075505 L6.28412136,8.30512333 C6.10228203,8.48334077 6,8.72593792 6,8.97901519 C6,9.23209247 6.10228203,9.47468961 6.28412136,9.65290705 L10.3567427,13.7247325 C10.5380117,13.9023994 10.7834046,14.0014427 11.0387147,14 C11.2940248,14.0014427 11.5394177,13.9023994 11.7206867,13.7247325 C12.0931044,13.354531 12.0931044,12.7566417 11.7206867,12.3864402 L8.32043204,8.97901519 Z" id="Path" fill="#232323" fill-rule="nonzero"></path>
                </g>
            </g>
        </g>
    </g>
</svg>