<?xml version="1.0" encoding="UTF-8"?>
<svg width="20px" height="20px" viewBox="0 0 20 20" version="1.1" xmlns="http://www.w3.org/2000/svg" xmlns:xlink="http://www.w3.org/1999/xlink">
    <title>DE990872-944A-4B93-988B-711759F74310</title>
    <g id="Web" stroke="none" stroke-width="1" fill="none" fill-rule="evenodd">
        <g id="Tringhub_Home_Final" transform="translate(-928.000000, -217.000000)">
            <g id="project_overview" transform="translate(284.000000, 188.000000)">
                <g id="icon_document-pdf" transform="translate(644.000000, 29.000000)">
                    <rect id="dummy" x="0" y="0" width="20" height="20"></rect>
                    <path d="M12.0538778,1.11111111 C12.5688315,1.11111111 13.0627593,1.34456296 13.4272778,1.76025185 L13.4272778,1.76025185 L15.910463,4.59188148 C16.2760185,5.00877037 16.4814815,5.57474074 16.4814815,6.16496296 L16.4814815,6.16496296 L16.4814815,8.64026667 C17.2367037,8.94533333 17.7777778,9.76847407 17.7777778,10.7360444 L17.7777778,10.7360444 L17.7777778,16.6666667 C17.7777778,17.8940593 16.9071852,18.8888889 15.8333333,18.8888889 L15.8333333,18.8888889 L4.16666667,18.8888889 C3.09277593,18.8888889 2.22222222,17.8940593 2.22222222,16.6666667 L2.22222222,16.6666667 L2.22222222,10.7360444 C2.22222222,9.76847407 2.7632963,8.94533333 3.51851852,8.64026667 L3.51851852,8.64026667 L3.51851852,3.33333333 C3.51851852,2.10604444 4.38907222,1.11111111 5.46296296,1.11111111 L5.46296296,1.11111111 L12.0538778,1.11111111 Z M15.8333333,9.9953037 L4.16666667,9.9953037 C3.80870741,9.9953037 3.51851852,10.3269481 3.51851852,10.7360444 L3.51851852,16.6666519 C3.51851852,17.075837 3.80870741,17.4073926 4.16666667,17.4073926 L15.8333333,17.4073926 C16.1912407,17.4073926 16.4814815,17.075837 16.4814815,16.6666519 L16.4814815,10.7360444 C16.4814815,10.3269481 16.1912407,9.9953037 15.8333333,9.9953037 Z M6.54272593,11.4830222 C7.37805926,11.4830222 8.05524444,12.2569481 8.05524444,13.2116889 C8.05524444,14.1663556 7.37805926,14.9401333 6.54272593,14.9401333 L6.54272593,14.9401333 L6.1108,14.9401333 L6.1108,15.1868 C6.1108,15.595837 5.82061111,15.9275407 5.46265185,15.9275407 C5.10467963,15.9275407 4.8145037,15.595837 4.8145037,15.1868 L4.8145037,15.1868 L4.8145037,12.223763 C4.8145037,11.8146667 5.10467963,11.4830222 5.46265185,11.4830222 L5.46265185,11.4830222 L6.54272593,11.4830222 Z M9.99966296,11.4830222 C11.0735537,11.4830222 11.9441074,12.4779556 11.9441074,13.7053185 C11.9441074,14.9325778 11.0735407,15.9275407 9.99966296,15.9275407 L9.99966296,15.9275407 L9.34963519,15.9275407 C8.99167593,15.9275407 8.70148704,15.595837 8.70148704,15.1868 L8.70148704,15.1868 L8.70148704,12.223763 C8.70148704,11.8146667 8.99167593,11.4830222 9.34963519,11.4830222 L9.34963519,11.4830222 L9.99966296,11.4830222 Z M14.5354815,11.4830222 C14.8933889,11.4830222 15.1836296,11.8146667 15.1836296,12.223763 C15.1836296,12.6328593 14.8933889,12.9645778 14.5354815,12.9645778 L13.8886296,12.9645778 L13.8881111,13.4599852 L14.5354815,13.4599852 C14.8933889,13.4599852 15.1836296,13.7916889 15.1836296,14.2007259 C15.1836296,14.6099111 14.8933889,14.9414667 14.5354815,14.9414667 L13.8888889,14.9414667 L13.889537,15.1848741 C13.8904444,15.5939111 13.6009815,15.9265037 13.2429444,15.9273974 C12.885037,15.9284296 12.5941481,15.597763 12.5932407,15.1885778 L12.5910111,14.199837 L12.5932407,12.2228296 C12.5936296,11.8141037 12.8837407,11.4830222 13.2413889,11.4830222 L14.5354815,11.4830222 Z M9.99966296,12.9645778 L9.99778333,12.9645778 L9.99778333,14.4460593 C10.3576222,14.4460593 10.6478111,14.1143556 10.6478111,13.7053185 C10.6478111,13.2961333 10.3576222,12.9645778 9.99966296,12.9645778 L9.99966296,12.9645778 Z M6.54272593,12.9645778 L6.1108,12.9645778 L6.1108,13.4586519 L6.54272593,13.4586519 C6.66214074,13.4586519 6.75894815,13.3481333 6.75894815,13.2116889 C6.75894815,13.0750963 6.66214074,12.9645778 6.54272593,12.9645778 L6.54272593,12.9645778 Z M11.2962963,2.59259259 L5.46296296,2.59259259 C5.1050037,2.59259259 4.81481481,2.92423704 4.81481481,3.33333333 L4.81481481,8.51382222 L15.1851852,8.51382222 L15.1851852,7.03405926 L13.2407407,7.03405926 C12.16685,7.03405926 11.2962963,6.03914074 11.2962963,4.81183704 L11.2962963,2.59259259 Z M12.5925926,2.90124444 L12.5925926,4.81183704 C12.5925926,5.22093333 12.8828333,5.55257778 13.2407407,5.55257778 L13.2407407,5.55257778 L14.9176296,5.55257778 L12.5925926,2.90124444 Z" id="Shape" fill="#232323" fill-rule="nonzero"></path>
                </g>
            </g>
        </g>
    </g>
</svg>