<?xml version="1.0" encoding="UTF-8"?>
<svg width="18px" height="18px" viewBox="0 0 18 18" version="1.1" xmlns="http://www.w3.org/2000/svg" xmlns:xlink="http://www.w3.org/1999/xlink">
    <title>7B0B5632-9E7B-49A0-8710-425199013F9F</title>
    <g id="Web" stroke="none" stroke-width="1" fill="none" fill-rule="evenodd">
        <g id="Tringhub_Home_Final" transform="translate(-1088.000000, -550.000000)">
            <g id="project_gallery" transform="translate(996.000000, 188.000000)">
                <g id="icon_right-arrow" transform="translate(92.000000, 362.000000)">
                    <rect id="path" x="0" y="0" width="18" height="18"></rect>
                    <path d="M11.7158786,8.32565165 L7.64325728,4.28209378 C7.46290297,4.10155212 7.21739704,4 6.96128531,4 C6.70517358,4 6.45966764,4.10155212 6.27931334,4.28209378 C5.90689555,4.65406053 5.90689555,5.25480076 6.27931334,5.62676751 L9.67956796,9.00275686 L6.27931334,12.3787462 C5.90689555,12.750713 5.90689555,13.3514532 6.27931334,13.7234199 C6.46058228,13.901934 6.70597519,14.0014496 6.96128531,14 C7.21659543,14.0014496 7.46198833,13.901934 7.64325728,13.7234199 L11.7158786,9.67986207 C11.897718,9.50079483 12,9.2570409 12,9.00275686 C12,8.74847283 11.897718,8.5047189 11.7158786,8.32565165 Z" id="Path" fill="#232323" fill-rule="nonzero"></path>
                </g>
            </g>
        </g>
    </g>
</svg>