<?xml version="1.0" encoding="UTF-8"?>
<svg width="18px" height="18px" viewBox="0 0 18 18" version="1.1" xmlns="http://www.w3.org/2000/svg" xmlns:xlink="http://www.w3.org/1999/xlink">
    <title>C8E270EB-80D6-4A09-9929-E7BBA445F7FA</title>
    <g id="Web" stroke="none" stroke-width="1" fill="none" fill-rule="evenodd">
        <g id="Tringhub_Home_Final" transform="translate(-898.000000, -218.000000)">
            <g id="project_overview" transform="translate(284.000000, 188.000000)">
                <g id="icon_microsoft-excel" transform="translate(614.000000, 30.000000)">
                    <rect id="dummy" x="0" y="0" width="18" height="18"></rect>
                    <path d="M9.53333333,17 L1,15.2857143 L1,2.71428571 L9.53333333,1 L9.53333333,17 Z M9.53333333,3.28571429 L17,3.28571429 L17,14.7142857 L9.53333333,14.7142857 M11.6666667,5.57142857 L9.53333333,5.57142857 M11.6666667,7.85714286 L9.53333333,7.85714286 M11.6666667,10.1428571 L9.53333333,10.1428571 M11.6666667,12.4285714 L9.53333333,12.4285714 M14.8666667,5.57142857 L13.8,5.57142857 M14.8666667,7.85714286 L13.8,7.85714286 M14.8666667,10.1428571 L13.8,10.1428571 M14.8666667,12.4285714 L13.8,12.4285714 M3.66666667,6.71428571 L7.4,11.2857143 M3.66666667,11.2857143 L7.4,6.14285714" id="Shape" stroke="#232323" stroke-width="1.2" stroke-linecap="round" stroke-linejoin="round"></path>
                </g>
            </g>
        </g>
    </g>
</svg>