<?xml version="1.0" encoding="UTF-8"?>
<svg width="24px" height="24px" viewBox="0 0 24 24" version="1.1" xmlns="http://www.w3.org/2000/svg" xmlns:xlink="http://www.w3.org/1999/xlink">
    <title>5F2A795C-C1B5-4AA3-86F7-35613519683D</title>
    <g id="Web" stroke="none" stroke-width="1" fill="none" fill-rule="evenodd">
        <g id="Tringhub_Home_Final" transform="translate(-40.000000, -136.000000)">
            <g id="icon_dashboard" transform="translate(40.000000, 136.000000)">
                <rect id="path" x="0" y="0" width="24" height="24"></rect>
                <path d="M15.2900609,10.29 L12.5100609,13.07 C12.343595,13.0257397 12.172296,13.0022281 12.0000609,13 C10.8954914,13 10.0000609,13.8954305 10.0000609,15 C10.002289,15.172235 10.0258007,15.3435341 10.0700609,15.51 L9.29006092,16.29 C9.10074827,16.4777666 8.99426259,16.7333625 8.99426259,17 C8.99426259,17.2666375 9.10074827,17.5222334 9.29006092,17.71 C9.47782752,17.8993127 9.73342338,18.0057983 10.0000609,18.0057983 C10.2666985,18.0057983 10.5222943,17.8993127 10.7100609,17.71 L11.4900609,16.93 C11.6565268,16.9742603 11.8278259,16.9977719 12.0000609,17 C13.1046304,17 14.0000609,16.1045695 14.0000609,15 C13.9978328,14.827765 13.9743212,14.6564659 13.9300609,14.49 L16.7100609,11.71 C17.1021831,11.3178778 17.1021831,10.6821222 16.7100609,10.29 C16.3179387,9.89787784 15.6821831,9.89787784 15.2900609,10.29 L15.2900609,10.29 Z M12.0000609,4 C6.47721342,4 2.00003027,8.4771525 2.00003027,14 C1.99513633,15.9805719 2.5837833,17.9171856 3.69006092,19.56 C3.99934038,20.0183963 4.62166457,20.1392794 5.0800609,19.83 C5.53845724,19.5207205 5.65934036,18.8983963 5.35006092,18.44 C3.11787659,15.1021563 3.70587493,10.6267548 6.72450215,7.97878629 C9.74312938,5.33081774 14.2569925,5.33081774 17.2756197,7.97878629 C20.2942469,10.6267548 20.8822452,15.1021563 18.6500609,18.44 C18.5012076,18.6600282 18.4460192,18.9302421 18.4966735,19.1910177 C18.5473277,19.4517933 18.6996612,19.6816972 18.9200609,19.83 C19.0855983,19.9412428 19.2806182,20.0004453 19.4800609,20 C19.812687,20.0005011 20.1237905,19.8355788 20.3100609,19.56 C21.4163385,17.9171856 22.0049855,15.9805719 22.0000916,14 C22.0000916,11.3478351 20.9464925,8.80429597 19.0711287,6.92893219 C17.1957649,5.0535684 14.6522258,4 12.0000609,4 Z" id="Shape" fill="#6f0" fill-rule="nonzero"></path>
            </g>
        </g>
    </g>
</svg>