<?xml version="1.0" encoding="UTF-8"?>
<svg width="24px" height="25px" viewBox="0 0 24 25" version="1.1" xmlns="http://www.w3.org/2000/svg" xmlns:xlink="http://www.w3.org/1999/xlink">
    <title>4471784C-2B40-41E3-9FDC-66606BEB9282</title>
    <g id="Web" stroke="none" stroke-width="1" fill="none" fill-rule="evenodd">
        <g id="Tringhub_Home_Final" transform="translate(-1302.000000, -36.000000)">
            <g id="top_menu" transform="translate(260.000000, 0.000000)">
                <g id="ic_notification" transform="translate(1042.000000, 36.602259)">
                    <rect id="path" x="0" y="0.397740785" width="24" height="24"></rect>
                    <path d="M12,1 C8.00848,1 4.77734,4.613291 4.77734,9.041605 L4.77734,12.895895 C3.79101,13.374098 3,14.264218 3,15.516997 C3,17.19794 4.24804,18.6 5.77734,18.6 L18.22266,18.6 C19.75196,18.6 21,17.19794 21,15.516997 C21,14.264218 20.20899,13.374098 19.22266,12.895895 L19.22266,9.041605 C19.22266,4.613291 15.99152,1 12,1 L12,1 Z M17.22266,9.041605 C17.22466,10.502504 17.22366,12.042845 17.21466,13.47598 C17.18566,14.104311 17.64076,14.631354 18.15187,14.631596 C18.66297,14.631838 18.99985,15.000063 18.99985,15.516997 C18.99985,16.033909 18.66297,16.4 18.2225,16.4 L5.77714,16.4 C5.33667,16.4 4.9998,16.033909 4.9998,15.516997 C4.9998,15.000063 5.33667,14.631838 5.84736,14.631563 C6.35805,14.631299 6.81279,14.105631 6.78496,13.478125 C6.76436,12.022726 6.77696,10.516683 6.77696,9.041605 C6.77696,5.777311 9.09692,3.2 11.99961,3.2 C14.90231,3.2 17.22227,5.777311 17.22227,9.041605 L17.22266,9.041605 Z M10,20.8 C9.44771525,20.8 9,21.2924868 9,21.9 C9,22.5075132 9.44771525,23 10,23 L14,23 C14.5522847,23 15,22.5075132 15,21.9 C15,21.2924868 14.5522847,20.8 14,20.8 L10,20.8 Z" id="Shape" fill="#232323" fill-rule="nonzero"></path>
                    <circle cx="18px" cy="5px" r="4.5"  fill="red" />
                </g>
            </g>
        </g>
    </g>
</svg>