<?xml version="1.0" encoding="UTF-8"?>
<svg width="24px" height="24px" viewBox="0 0 24 24" version="1.1" xmlns="http://www.w3.org/2000/svg" xmlns:xlink="http://www.w3.org/1999/xlink">
    <title>8A720FAA-0791-4726-B48C-7F7A6D463246</title>
    <g id="Web" stroke="none" stroke-width="1" fill="none" fill-rule="evenodd">
        <g id="Tringhub_Home_Final" transform="translate(-296.000000, -38.000000)">
            <g id="top_menu" transform="translate(260.000000, 0.000000)">
                <g id="Search-box" transform="translate(24.000000, 26.000000)">
                    <g id="ic_search" transform="translate(12.000000, 12.000000)">
                        <rect id="dummy" x="0" y="0" width="24" height="24"></rect>
                        <g id="icon_research">
                            <rect id="path" x="0" y="0" width="24" height="24"></rect>
                            <path d="M20.9924935,19.6746951 L18.005192,16.5923545 C17.4173128,16.0319097 16.7733178,15.4151748 16.0732069,14.7421498 L15.2019377,13.8683555 C17.3319381,11.0140609 16.9006532,6.99424169 14.2139477,4.65972929 C11.5272422,2.32521688 7.49847546,2.46964086 4.98482445,4.99057662 C2.47117344,7.51151237 2.3271668,11.5519547 4.65493317,14.2464465 C6.98269954,16.9409383 10.9909027,17.3734731 13.8369493,15.2372998 L14.6985377,16.1013852 C14.674487,16.1487636 16.569698,18.005383 16.5530767,18.0486782 L19.4573074,20.9613255 C20.0341199,21.0543684 20.4435357,20.9795296 20.685555,20.736809 C20.9275742,20.4940884 21.029887,20.1400504 20.9924935,19.6746951 Z M13.1592954,13.2372819 C11.2677475,15.129522 8.20521057,15.1269338 6.31684521,13.2314993 C4.42847985,11.3360648 4.42847985,8.26465126 6.31684521,6.36921673 C8.20521057,4.4737822 11.2677475,4.47119402 13.1592954,6.36343411 C14.0696914,7.27416324 14.5813402,8.51076144 14.5813402,9.80035802 C14.5813402,11.0899546 14.0696914,12.3265528 13.1592954,13.2372819 L13.1592954,13.2372819 Z" id="Shape" fill="#232323" fill-rule="nonzero"></path>
                        </g>
                    </g>
                </g>
            </g>
        </g>
    </g>
</svg>