<?xml version="1.0" encoding="UTF-8"?>
<svg width="18px" height="18px" viewBox="0 0 18 18" version="1.1" xmlns="http://www.w3.org/2000/svg" xmlns:xlink="http://www.w3.org/1999/xlink">
    <title>F11877EA-A613-471F-86E7-AA7C2D2957B2</title>
    <g id="Web" stroke="none" stroke-width="1" fill="none" fill-rule="evenodd">
        <g id="Tringhub_Home_Final" transform="translate(-1138.000000, -42.000000)">
            <g id="top_menu" transform="translate(260.000000, 0.000000)">
                <g id="button_add_project" transform="translate(866.000000, 26.000000)">
                    <g id="icon_plus" transform="translate(12.000000, 16.000000)">
                        <rect id="path" x="0" y="0" width="18" height="18"></rect>
                        <path d="M15.5625,8.0625 L9.9375,8.0625 L9.9375,2.4375 C9.9375,1.91973305 9.51776695,1.5 9,1.5 C8.48223305,1.5 8.0625,1.91973305 8.0625,2.4375 L8.0625,8.0625 L2.4375,8.0625 C1.91973305,8.0625 1.5,8.48223305 1.5,9 C1.5,9.51776695 1.91973305,9.9375 2.4375,9.9375 L8.0625,9.9375 L8.0625,15.5625 C8.0625,16.080267 8.48223305,16.5 9,16.5 C9.51776695,16.5 9.9375,16.080267 9.9375,15.5625 L9.9375,9.9375 L15.5625,9.9375 C16.080267,9.9375 16.5,9.51776695 16.5,9 C16.5,8.48223305 16.080267,8.0625 15.5625,8.0625 Z" id="Path" fill="#FFFFFF" fill-rule="nonzero"></path>
                    </g>
                </g>
            </g>
        </g>
    </g>
</svg>